<svg width="417" height="490" fill="none" xmlns="http://www.w3.org/2000/svg">
    <path d="m208.555-.5-.149.215c-7.177 10.329-12.268 23.664-12.268 36.42 0 4.73.323 13.152 2.025 20.899.851 3.873 2.051 7.602 3.745 10.624 1.692 3.02 3.904 5.38 6.795 6.426l.177.064.176-.068c2.86-1.12 5.053-3.56 6.736-6.658 1.684-3.1 2.883-6.91 3.733-10.858 1.698-7.898 2.017-16.446 1.95-21.23-.153-12.432-5.281-25.556-12.247-35.619l-.149-.215h-.524ZM194.011 39.255l-.879-.896c-4.52-4.608-8.958-8.062-14.658-11.16l-.238-.13-.021-.27c-.763-9.496.59-17.559 1.394-21.188l.155-.7.604.388c3.116 2.004 9.798 6.75 15.968 13.996l.175.206-.076.26c-1.862 6.35-2.558 11.754-2.446 18.24l.022 1.254Z" fill="#D9D9D9"/>
    <path d="m172.033 56.109-.003.003.337.336c3.195 3.19 8.739 8.092 14.712 12.128 2.987 2.019 6.093 3.828 9.074 5.097 2.974 1.266 5.864 2.012 8.407 1.858l1.409-.085-1.148-.82c-1.865-1.334-3.442-3.422-4.764-5.979-1.32-2.553-2.371-5.545-3.2-8.653-1.657-6.217-2.413-12.843-2.678-17.225l-.011-.183-.126-.133c-11.067-11.583-22.122-18.08-38.209-20.997l-.709-.129.128.71c2.206 12.177 7.968 25.097 16.781 34.072ZM176.375 63.14l-1.249.044c-5.933.208-11.88.868-17.534 2.556l-.234.07-.2-.143c-9.575-6.85-15.722-15.45-18.109-19.13l-.395-.608.71-.152c3.648-.782 11.725-2.155 21.218-1.373l.268.022.13.236c4.119 7.511 8.346 12.222 14.46 17.649l.935.83Z" fill="#D9D9D9"/>
    <path d="m206.825 78.202.673-1.034-1.203.273c-4.022.914-9.239-.78-14.312-3.419-5.043-2.623-9.823-6.114-12.919-8.621l-.143-.115-.183.004c-17.747.4-31.007 4.156-45.017 15.796l-1.065.885h1.255c8.616 4.86 23.844 8.38 38.358 8.498 7.297.06 14.445-.74 20.508-2.68 6.059-1.937 11.08-5.029 14.048-9.587ZM202.396 112.165v18.368a7.524 7.524 0 0 1-1.049-.089c-2.832-.648-3.52-.539-4.623 2.056a701.653 701.653 0 0 1-4.177 9.56l-.005.01c-4.263 9.629-8.527 19.259-11.453 29.415-.463 1.614-.654 3.308-.844 5l-.013.114c-.067.585-.133 1.169-.211 1.748-.206 1.501.583 2.134 2.024 2.106.216 0 .432-.002.648-.005.432-.005.862-.01 1.295.005 1.084.035 1.631-.449 1.787-1.551 1.309-9.275 4.32-18.073 7.329-26.864a799.012 799.012 0 0 0 1.681-4.945 50.416 50.416 0 0 1 3.473-7.758c1.166-2.157 2.829-2.11 3.726.174.653 1.808.97 3.719.937 5.641-.019 24.942-.083 49.885-.195 74.828-.011 3.752-.011 7.504-.011 11.256v.001c.001 9.884.002 19.767-.218 29.644-.066 3.038-1.216 6.226-2.545 9.023-3.336 7.019-8.529 12.648-13.735 18.29-.548.594-1.096 1.188-1.643 1.785-5.636 6.149-11.981 11.492-18.326 16.835l-.001.001-.113.096-.01.008c-1.967 1.657-3.935 3.314-5.879 4.996-1.084.935-3.046 1.652-4.383 1.385-7.285-1.467-13.874-4.469-19.255-9.787-5.101-5.043-5.191-5.935-.031-10.676a4091.719 4091.719 0 0 1 32.725-29.752c1.889-1.696 2.401-3.395 1.873-5.819l-1.339-6.078v-.001l-.025-.113c-2.576-11.679-5.152-23.36-7.502-35.086-2.366-11.812.307-22.887 5.575-33.546 3.38-6.83 6.664-13.708 9.947-20.588l.001-.002.082-.171v-.001l.001-.001c1.084-2.273 2.169-4.546 3.257-6.818 5.75-12.002 11.485-24.009 17.204-36.021.393-.828.743-1.675 1.093-2.523l.007-.018c.363-.877.726-1.755 1.138-2.611.211-.441.561-.816.911-1.191.158-.168.315-.337.46-.512l.412.182ZM208.963 151.24l-.007-.013a66.182 66.182 0 0 1-.541-.93l-.525.136c-.037.552-.083 1.105-.129 1.658-.105 1.241-.209 2.483-.209 3.723-.015 32.507.002 65.016.051 97.528-.01 1.743.199 3.48.621 5.171 3.237 12.39 10.397 22.615 19.334 31.297 6.139 5.945 12.737 11.406 19.336 16.869l.027.022.001.001.002.001.001.001.077.064c3.186 2.638 6.373 5.276 9.509 7.969 1.406 1.214 2.743 1.141 4.297.574 6.95-2.556 13.373-6.047 18.447-11.478a30.638 30.638 0 0 0 5.439-8.348c1.714-3.829 1.077-5.109-2.498-7.37a1075.44 1075.44 0 0 0-7.595-4.722l-.001-.001-.002-.001-.001-.001c-3.402-2.102-6.806-4.206-10.176-6.358a53.804 53.804 0 0 0-11.054-5.547 11.845 11.845 0 0 1-4.825-3.398c-6.477-7.619-8.878-16.572-7.677-26.378.944-7.689 2.249-15.334 3.582-22.968 1.301-7.441 1.907-14.807.19-22.298-1.407-6.127-4.495-11.412-7.585-16.7l-.001-.002-.002-.003-.265-.454c-.232-.398-.464-.795-.694-1.193-2.414-4.161-4.893-8.283-7.372-12.406l-.001-.002-.001-.002-.001-.001-.06-.099c-1.859-3.092-3.719-6.185-5.55-9.294-1.08-1.834-2.121-3.691-3.162-5.547l-.057-.103c-1.53-2.731-3.06-5.462-4.711-8.121a15.003 15.003 0 0 0-4.138-4.155c-1.208-.845-2.024-.139-1.635 1.335a31.534 31.534 0 0 0 1.822 5.504 950.28 950.28 0 0 0 9.713 20.463c2.487 5.042 3.435 10.326 3.264 15.857-4.41.734-4.496.683-5.533-3.227-.129-.489-.262-.977-.395-1.465l-.001-.001c-.324-1.194-.649-2.387-.925-3.596-1.523-6.987-4.173-13.562-7.261-19.974-.343-.692-.733-1.355-1.123-2.017Z" fill="#D9D9D9"/>
    <path d="M249.116 322.263c22.923-1.09 38.173-11.735 44.93-33.749 2.001.66 2.544 2.378 2.572 4.217.143 10.365-3.886 18.658-12.46 24.648l-.002.001c-.12.083-.239.166-.359.247l-.001.001c-.305.209-.609.417-.901.639-.046.036-.065.109-.113.304l-.003.012c-.034.137-.083.331-.164.611.525-.24 1.026-.453 1.503-.656 1.062-.45 2.008-.852 2.853-1.404a185.298 185.298 0 0 0 8.753-6.09c2.805-2.071 4.414-5.004 5.474-8.266.328-1.004.662-2.005.997-3.007l.002-.006c.217-.649.434-1.298.649-1.949.431-1.303 1.367-1.474 2.172-.593.878.954 1.775 2.122 2.063 3.336.785 3.354-.061 6.578-.905 9.798l-.001.004-.014.051-.001.005-.006.023-.152.581-.116.448-.067.265-.059.237c-2.289 9.132-8.703 14.807-16.214 19.664-7.382 4.767-15.541 5.698-24.003 5.159a10.706 10.706 0 0 1-4.056-1.164 26.99 26.99 0 0 1-11.224-10.664 23.865 23.865 0 0 1-1.147-2.703Z" fill="#D9D9D9"/>
    <path fill-rule="evenodd" clip-rule="evenodd" d="M126.077 283.557a572.6 572.6 0 0 1 .238-1.75l-.474.022-.303.012-.098.004c-.597.024-1.155.046-1.709.098-9.165.857-14.196 7.045-12.502 15.443a20.95 20.95 0 0 0 1.418 4.41c6.989 15.408 19.209 24.598 35.189 29.171 4.712 1.35 9.55 1.684 14.375.334 6.096-1.707 10.265-7.289 9.671-13.317-.526.064-1.052.135-1.577.206h-.001l-.04.005c-1.096.149-2.192.297-3.293.375-1.19.086-2.388.226-3.588.366l-.015.002h-.001c-2.871.336-5.747.672-8.511.268-12.238-1.796-20.421-9.613-26.851-19.543-2.397-3.701-3.112-7.883-2.467-12.274.186-1.23.354-2.465.532-3.784l.001-.003.006-.045Zm-7.268 18.034c-.552-3.212.769-5.602 3.656-6.525.42 7.623 4.208 13.317 9.674 17.995 1.206 1.035 2.692 1.75 4.174 2.462l.004.002a52.73 52.73 0 0 1 1.65.818c.247.129.536.19.822.25h.002c.364.077.725.153.991.371.375.296.639.734.905 1.173l.002.003c.115.191.23.382.355.562a6.476 6.476 0 0 0-.532.332l-.002.001c-.38.255-.759.508-1.156.539-3.776.322-7.172-1.035-10.241-2.975-5.537-3.495-9.174-8.445-10.304-15.008Z" fill="#D9D9D9"/>
    <path d="M238.871 174.903c-.654-.993-1.326-1.972-1.998-2.951l-.001-.001c-1.43-2.082-2.858-4.16-4.097-6.358-3.545-6.264-7.029-12.564-10.514-18.868l-.041-.074a3452.118 3452.118 0 0 0-6.49-11.703 14.996 14.996 0 0 0-2.331-3.061c-2.324-2.379-2.373-2.355-5.507-.84l-.029.014v-19.667c.32.36.633.679.926.978l.01.01c.585.596 1.093 1.115 1.441 1.727 10.739 18.802 19.889 38.403 28.596 58.187.189.435.345.885.5 1.336.09.262.18.523.277.782l-.742.489Z" fill="#D9D9D9"/>
    <path fill-rule="evenodd" clip-rule="evenodd" d="M-.5 418.672h198.871c-5.079-4.864-7.674-10.042-7.674-15.532 0-4.544 1.683-8.463 5.026-11.731 3.337-3.264 7.253-4.909 11.723-4.909 4.473 0 7.966 1.026 10.4 3.154 2.455 2.084 4.1 4.624 4.922 7.612l.092.333-3.451 2.521-.303-.319c-2.521-2.662-5.321-3.96-8.411-3.96-3.069 0-5.333.937-6.876 2.749l-.006.007c-1.561 1.764-2.367 4.162-2.367 7.251 0 4.339 1.799 8.611 5.468 12.824h105.944c-3.164-3.587-4.776-7.431-4.776-11.524 0-5.881 2.582-10.615 7.689-14.168l.002-.001c5.163-3.54 11.878-5.288 20.106-5.288 8.269 0 16.215.907 23.837 2.722 7.608 1.739 14.214 3.951 19.815 6.642 11.196 5.201 18.849 9.817 22.887 13.856l.25.25-.153.319c-.898 1.873-2.079 3.26-3.558 4.116l-.258.149-.253-.154c-18.261-11.144-38.427-16.717-60.508-16.717-6.469 0-11.241.91-14.379 2.671-1.561.876-2.71 1.958-3.47 3.238-.76 1.28-1.149 2.784-1.149 4.531 0 3.041 1.292 6.157 3.957 9.358h90.023l.15.183c2.384 2.905 3.58 6.23 3.58 9.958v.5h-15.056v59.468h-.5c-2.59 0-5.106-.48-7.545-1.441-1.181-.443-2.109-.937-2.751-1.498-.648-.568-1.037-1.236-1.037-2.002v-37.304h-.258c-2.434 0-4.577 1.039-6.447 3.186-1.91 2.193-3.283 4.555-4.128 7.087-.856 2.57-1.499 5.321-1.928 8.256l-.077.521-.516-.104c-1.506-.301-3.283-.971-5.326-1.993l-.006-.003c-1.953-1.012-3.326-1.913-4.042-2.71l-.166-.184.047-.243c.486-2.566.974-4.619 1.468-6.147-.898-1.713-2.248-3.178-4.071-4.392l-.009-.006-.008-.006c-1.783-1.303-3.914-1.962-6.421-1.962-2.449 0-4.438.943-6.004 2.849-1.487 1.825-2.27 4.58-2.27 8.349 0 3.692 1.39 7.304 4.223 10.846 2.855 3.568 6.939 7.404 12.264 11.506l.343.264-.212.377c-1.32 2.347-2.763 4.203-4.336 5.551l-.297.254-.318-.226c-15.278-10.862-23.066-21.933-23.066-33.229 0-5.532 1.776-9.838 5.379-12.841 3.62-3.029 7.632-4.558 12.019-4.558 4.345 0 7.897 1.106 10.608 3.364 2.413 1.956 4.235 4.071 5.448 6.349 3.656-6.363 8.781-9.604 15.358-9.604 1.034 0 1.953.089 2.749.274v-8.048h-55.527l-.001-.001h-8.577v59.469h-.5c-2.59 0-5.106-.481-7.545-1.441-1.18-.443-2.109-.937-2.75-1.499-.649-.567-1.038-1.235-1.038-2.001v-54.528l-20.203.001v59.468h-.5c-2.518 0-4.997-.481-7.435-1.44-1.214-.442-2.168-.935-2.827-1.494-.666-.566-1.07-1.235-1.07-2.007v-32.971h-16.966c3.946 4.95 5.942 10.13 5.942 15.531 0 4.225-1.301 7.616-3.945 10.111-2.566 2.488-5.948 3.713-10.095 3.713-4.068 0-7.879-1.111-11.422-3.326l-.004-.002c-3.459-2.207-6.466-5.219-9.027-9.023-4.949-7.206-8.833-16.107-11.66-26.691l-.09-.336.284-.201c1.814-1.285 4.098-2.102 6.829-2.471l.436-.059.114.426c1.366 5.106 2.983 9.812 4.85 14.119a41.42 41.42 0 0 0 7.385 11.345c3.04 3.323 6.237 4.928 9.597 4.928 1.997 0 3.61-.548 4.877-1.615 1.225-1.031 1.88-2.639 1.88-4.926 0-4.139-2.705-9.398-8.325-15.81l-.184-.21.082-.267c.311-1.008.92-2.14 1.802-3.39l.004-.005c.476-.66.906-1.194 1.289-1.596.373-.392.737-.696 1.086-.846l.094-.04h25.167v-10.915h-61.376l-.001-.001h-9.107v59.469h-.5c-2.59 0-5.106-.481-7.545-1.441-1.18-.443-2.109-.937-2.75-1.498-.649-.568-1.038-1.236-1.038-2.002v-54.528l-20.18.001v59.468h-.5c-2.518 0-4.998-.481-7.435-1.44-1.214-.442-2.168-.935-2.827-1.494-.666-.566-1.07-1.235-1.07-2.007v-54.527H154.16v20.081c0 6.727-1.683 12.159-5.099 16.244l-.003.003c-3.437 4.037-8.395 6.025-14.787 6.025-6.342 0-11.604-2.218-15.747-6.658-4.152-4.448-6.201-10.504-6.201-18.106v-17.589H95.932v59.468h-.5c-2.59 0-5.106-.48-7.545-1.441-1.18-.443-2.109-.937-2.75-1.498-.648-.568-1.037-1.236-1.037-2.002v-10.758c-4.215 2.738-8.891 4.109-14.015 4.109-5.378 0-10.007-1.587-13.86-4.773l-.004-.003c-3.726-3.153-6.204-7.078-7.424-11.764-1.542.121-2.789.183-3.735.183-6.55 0-12.09-1.078-16.602-3.262-2.142 1.835-4.9 2.988-8.246 3.483 1.874 3.027 4.753 6.754 8.649 11.189 4.253 4.757 7.957 8.532 11.115 11.33l.314.279-.22.357c-.624 1.015-1.69 2.068-3.153 3.167-1.454 1.163-2.691 1.958-3.701 2.346l-.3.115-.229-.224c-3.052-2.979-6.604-6.966-10.655-11.958-4.487-5.537-7.865-10.365-10.124-14.481-2.252-4.105-3.42-7.553-3.42-10.315 0-2.568.837-4.543 2.584-5.816 1.693-1.306 3.828-1.942 6.366-1.942 2.255 0 4.132.27 5.606.833.474-1.06.718-2.322.718-3.799 0-4.009-1.186-8.281-3.59-12.823H3.225l-.15-.188C.698 426.152-.5 422.829-.5 419.172v-.5Zm63.21 29.918-.006.005c-2.608 2.058-3.927 4.972-3.927 8.814 0 3.901.958 6.583 2.753 8.181 1.858 1.58 4.016 2.368 6.496 2.368 2.572 0 5.345-.764 8.326-2.326l.004-.002c2.994-1.531 5.574-3.47 7.744-5.816v-11.45c-3.11-2.008-6.764-3.02-10.982-3.02-4.32 0-7.773 1.096-10.408 3.246Zm-28.738-6.67c0 3.391-.347 6.272-1.054 8.632 2.08.481 4.538.725 7.378.725 2.948 0 5.657-.296 8.129-.885 1.007-4.881 3.514-8.65 7.518-11.272 4.057-2.729 8.631-4.091 13.708-4.091 4.903 0 9.721 1.561 14.449 4.652v-10.368H31.965c1.333 4.815 2.007 9.019 2.007 12.607Zm105.764 18.202.006-.007c1.758-2.027 2.694-5.521 2.694-10.613v-20.189h-18.173v17.156c0 4.931.823 8.963 2.437 12.122.8 1.564 1.785 2.709 2.942 3.464 1.156.753 2.511 1.137 4.087 1.137 2.284 0 4.281-.998 6.007-3.07Z" fill="#D9D9D9"/>
    <path d="m221.099 19.501.176-.206c6.168-7.246 12.85-11.993 15.987-13.998l.606-.387.152.703c.783 3.626 2.158 11.69 1.375 21.187l-.023.27-.237.128c-5.909 3.214-10.231 6.572-14.634 11.157l-.879.915.018-1.269c.095-6.486-.582-11.871-2.464-18.24l-.077-.26ZM262.367 21.35l-.589.107c-15.145 2.746-27.841 9.559-38.199 21.007l-.118.13-.01.176c-.264 4.391-1.024 11.017-2.686 17.231-.831 3.107-1.885 6.098-3.206 8.65-1.324 2.555-2.902 4.641-4.768 5.975l-1.148.821 1.409.085c2.549.154 5.446-.597 8.427-1.869 2.988-1.275 6.101-3.09 9.092-5.114 5.982-4.045 11.525-8.948 14.691-12.1 9.004-8.989 14.864-22.1 17.097-34.41l.008-.044v-.645ZM256.63 44.663l.127-.232.264-.026h.008c9.493-.783 17.588.59 21.219 1.372l.706.152-.391.608c-2.369 3.681-8.516 12.261-18.092 19.13l-.199.144-.235-.07c-6.202-1.859-11.22-2.348-17.532-2.556l-1.251-.04.935-.833c6.096-5.427 10.341-10.156 14.441-17.65Z" fill="#D9D9D9"/>
    <path d="m211.37 77.443-1.199-.267.672 1.028c2.912 4.46 7.88 7.515 13.895 9.452 6.019 1.938 13.136 2.771 20.42 2.751 14.556-.04 29.909-3.491 38.695-8.5l.627-.357-.555-.462c-14.063-11.676-27.285-15.53-45.057-15.796l-.182-.003-.14.114c-3.096 2.507-7.862 5.988-12.891 8.607-5.058 2.634-10.261 4.329-14.285 3.433ZM206.092 411.265l.005.006c.878.987 1.661 1.746 2.349 2.262.671.503 1.323.831 1.924.831.572 0 1.237-.265 1.961-.692.738-.436 1.602-1.079 2.588-1.919l.002-.001c1.021-.876 1.806-1.648 2.339-2.315.515-.644.868-1.275.868-1.856 0-.55-.297-1.214-.753-1.944-.47-.752-1.164-1.657-2.073-2.711-.874-1.056-1.645-1.867-2.31-2.419-.642-.532-1.276-.9-1.863-.9-.552 0-1.209.299-1.922.756-.735.471-1.613 1.166-2.632 2.076-1.021.875-1.806 1.657-2.34 2.344-.521.669-.864 1.324-.864 1.932 0 .546.285 1.199.724 1.914.453.735 1.122 1.615 1.997 2.636Z" fill="#D9D9D9"/>
</svg>
